<?xml version="1.0" encoding="UTF-8" standalone="no"?>
<!-- Created with Inkscape (http://www.inkscape.org/) -->

<svg
   xmlns:dc="http://purl.org/dc/elements/1.1/"
   xmlns:cc="http://creativecommons.org/ns#"
   xmlns:rdf="http://www.w3.org/1999/02/22-rdf-syntax-ns#"
   xmlns:svg="http://www.w3.org/2000/svg"
   xmlns="http://www.w3.org/2000/svg"
   xmlns:sodipodi="http://sodipodi.sourceforge.net/DTD/sodipodi-0.dtd"
   xmlns:inkscape="http://www.inkscape.org/namespaces/inkscape"
   version="1.1"
   width="739.03125"
   height="423.875"
   id="svg2"
   inkscape:version="0.48.4 r9939"
   sodipodi:docname="rotate.svg">
  <sodipodi:namedview
     pagecolor="#ffffff"
     bordercolor="#666666"
     borderopacity="1"
     objecttolerance="10"
     gridtolerance="10"
     guidetolerance="10"
     inkscape:pageopacity="0"
     inkscape:pageshadow="2"
     inkscape:window-width="1024"
     inkscape:window-height="557"
     id="namedview10"
     showgrid="false"
     inkscape:zoom="0.55676792"
     inkscape:cx="330.00185"
     inkscape:cy="210.14142"
     inkscape:window-x="0"
     inkscape:window-y="25"
     inkscape:window-maximized="1"
     inkscape:current-layer="svg2" />
  <defs
     id="defs4" />
  <metadata
     id="metadata7">
    <rdf:RDF>
      <cc:Work
         rdf:about="">
        <dc:format>image/svg+xml</dc:format>
        <dc:type
           rdf:resource="http://purl.org/dc/dcmitype/StillImage" />
        <dc:title />
      </cc:Work>
    </rdf:RDF>
  </metadata>
  <rect
     style="fill:#ffffff;fill-opacity:1;stroke:none"
     id="rect3760"
     width="707.6557"
     height="382.56512"
     x="14.368644"
     y="19.756886"
     ry="34.12553" />
  <path
     inkscape:connector-curvature="0"
     style="font-size:medium;font-style:normal;font-variant:normal;font-weight:normal;font-stretch:normal;text-indent:0;text-align:start;text-decoration:none;line-height:normal;letter-spacing:normal;word-spacing:normal;text-transform:none;direction:ltr;block-progression:tb;writing-mode:lr-tb;text-anchor:start;baseline-shift:baseline;color:#000000;fill:#000000;fill-opacity:1;stroke:none;stroke-width:40;marker:none;visibility:visible;display:inline;overflow:visible;enable-background:accumulate;font-family:Sans;-inkscape-font-specification:Sans"
     id="rect2985"
     d="M 60.40625,0 C 27.287212,0 0,27.28721 0,60.40625 l 0,303.0625 C 0,396.58779 27.287212,423.875 60.40625,423.875 l 618.21875,0 c 33.11904,0 60.40625,-27.28721 60.40625,-60.40625 l 0,-303.0625 C 739.03125,27.28721 711.74404,0 678.625,0 L 60.40625,0 z m 0,40 618.21875,0 c 11.65093,0 20.40625,8.75532 20.40625,20.40625 l 0,303.0625 c 0,11.65093 -8.75532,20.40625 -20.40625,20.40625 l -618.21875,0 C 48.755323,383.875 40,375.11968 40,363.46875 L 40,60.40625 C 40,48.75532 48.755323,40 60.40625,40 z" />
  <path
     style="fill:#000000;fill-opacity:1;stroke:none"
     d="M 60.4375 61.4375 L 60.4375 362.46875 L 622.09375 362.46875 L 622.09375 61.4375 L 60.4375 61.4375 z M 273 124.3125 C 345.52272 123.62308 396.52631 161.16778 400.90625 253.71875 L 433.40625 253.71875 L 376.8125 314.3125 L 314.1875 253.71875 L 351.21875 253.71875 C 347.7795 209.82726 332.46031 181.65345 270.78125 178.53125 C 268.14542 150.36977 269.49035 156.16139 269.53125 124.375 C 270.69315 124.34486 271.84885 124.32344 273 124.3125 z "
     id="rect3755" />
  <rect
     style="fill:#000000;fill-opacity:1;stroke:none"
     id="rect3757"
     y="156.3822"
     x="636.17419"
     ry="12.121831"
     height="111.11678"
     width="44.446712" />
</svg>
